<?xml version="1.0" encoding="UTF-8" standalone="no"?>
<!-- Designed by Vexels.com - 2018 All Rights Reserved - https://vexels.com/terms-and-conditions/  -->

<svg
   xmlns:dc="http://purl.org/dc/elements/1.1/"
   xmlns:cc="http://creativecommons.org/ns#"
   xmlns:rdf="http://www.w3.org/1999/02/22-rdf-syntax-ns#"
   xmlns:svg="http://www.w3.org/2000/svg"
   xmlns="http://www.w3.org/2000/svg"
   xmlns:sodipodi="http://sodipodi.sourceforge.net/DTD/sodipodi-0.dtd"
   xmlns:inkscape="http://www.inkscape.org/namespaces/inkscape"
   version="1.1"
   id="Layer_1"
   x="0px"
   y="0px"
   viewBox="0 0 1100 745.51202"
   enable-background="new 0 0 1200 1200"
   xml:space="preserve"
   sodipodi:docname="api.svg"
   width="1100"
   height="745.51202"
   inkscape:version="0.92.3 (2405546, 2018-03-11)"><metadata
   id="metadata19"><rdf:RDF><cc:Work
       rdf:about=""><dc:format>image/svg+xml</dc:format><dc:type
         rdf:resource="http://purl.org/dc/dcmitype/StillImage" /><dc:title></dc:title></cc:Work></rdf:RDF></metadata><defs
   id="defs17" /><sodipodi:namedview
   pagecolor="#ffffff"
   bordercolor="#666666"
   borderopacity="1"
   objecttolerance="10"
   gridtolerance="10"
   guidetolerance="10"
   inkscape:pageopacity="0"
   inkscape:pageshadow="2"
   inkscape:window-width="668"
   inkscape:window-height="483"
   id="namedview15"
   showgrid="false"
   fit-margin-top="0"
   fit-margin-left="0"
   fit-margin-right="0"
   fit-margin-bottom="0"
   inkscape:zoom="0.19666667"
   inkscape:cx="550"
   inkscape:cy="372.756"
   inkscape:window-x="0"
   inkscape:window-y="40"
   inkscape:window-maximized="0"
   inkscape:current-layer="Layer_1" />
<g
   id="XMLID_853_"
   transform="translate(-50,-227.244)">
	<g
   id="Path_1_">
		<g
   id="g5">
			<g
   id="XMLID_23_">
				<g
   id="XMLID_24_">
					<path
   id="XMLID_25_"
   d="m 1150,755.186 c 0,120.11 -96.738,217.57 -215.958,217.57 H 265.891 C 146.692,972.756 50,875.296 50,755.186 50,646.579 128.79,556.76 231.996,540.331 c -1.353,-7.671 -2.063,-15.502 -2.063,-23.526 0,-76.137 61.243,-137.86 136.87,-137.86 33.698,0 64.591,12.291 88.389,32.731 42.465,-96.484 96.97,-184.432 249.75,-184.432 185.301,0 273.116,143.902 273.116,295.858 0,6.345 -0.27,12.706 -0.694,18.875 C 1075.866,562.162 1150,649.936 1150,755.186 Z"
   inkscape:connector-curvature="0"
   style="fill:#f5a836" />
				</g>
			</g>
		</g>
	</g>
	<g
   id="XMLID_1009_">
		<g
   id="XMLID_849_">
			<g
   id="XMLID_86_">
				<path
   d="M 823.151,640.25 H 802.4 c -5.619,0 -12.227,-5.052 -14.409,-11.06 -1.927,-5.626 -4.252,-11.124 -6.865,-16.461 -2.749,-5.785 -1.751,-14 2.222,-17.996 l 14.839,-14.752 c 10.293,-10.372 10.293,-27.201 0,-37.542 l -24.02,-24.068 c -5.028,-4.985 -11.717,-7.687 -18.763,-7.687 -7.138,0 -13.768,2.703 -18.851,7.687 l -14.75,14.799 c -2.375,2.397 -6.314,3.74 -10.565,3.74 -2.639,0 -5.195,-0.384 -7.295,-1.518 -5.387,-2.508 -10.949,-4.825 -16.559,-6.888 -6.024,-2.126 -11.107,-8.695 -11.107,-14.321 v -20.744 c 0,-14.655 -11.948,-26.624 -26.595,-26.624 h -33.897 c -14.655,0 -26.617,11.969 -26.617,26.624 v 20.744 c 0,5.626 -5.052,12.194 -11.101,14.321 -5.608,2.063 -11.172,4.252 -16.502,6.888 -2.124,1.007 -4.674,1.518 -7.31,1.518 -4.269,0 -8.233,-1.343 -10.588,-3.74 l -14.776,-14.799 c -5.042,-4.985 -11.731,-7.687 -18.77,-7.687 -7.185,0 -13.793,2.703 -18.788,7.687 l -24.092,24.068 c -4.97,4.955 -7.746,11.653 -7.746,18.699 0,7.16 2.776,13.84 7.746,18.843 l 14.774,14.752 c 4.043,3.996 5.051,12.211 2.27,17.996 -2.598,5.337 -4.931,10.835 -6.872,16.461 -2.126,6.008 -8.726,11.06 -14.321,11.06 h -20.807 c -14.626,0 -26.572,11.985 -26.572,26.593 v 33.946 c 0,14.608 11.947,26.682 26.572,26.682 h 20.807 c 5.595,0 12.194,4.923 14.321,10.996 1.941,5.531 4.274,11.125 6.872,16.494 2.78,5.785 1.773,13.959 -2.27,17.923 l -14.774,14.8 c -10.358,10.261 -10.358,27.169 0,37.589 l 24.092,24.005 c 4.994,4.953 11.602,7.767 18.788,7.767 7.039,0 13.728,-2.814 18.77,-7.767 l 14.776,-14.8 c 2.405,-2.333 6.336,-3.837 10.588,-3.837 2.653,0 5.186,0.545 7.31,1.631 5.379,2.557 10.894,4.954 16.502,6.87 6.049,2.144 11.101,8.696 11.101,14.32 v 20.778 c 0,14.607 11.962,26.53 26.617,26.53 h 33.897 c 14.664,0 26.595,-11.923 26.595,-26.53 v -20.778 c 0,-5.624 5.083,-12.176 11.107,-14.32 5.61,-1.917 11.172,-4.314 16.536,-6.87 2.069,-1.024 4.681,-1.631 7.286,-1.631 4.284,0 8.223,1.503 10.598,3.837 l 14.75,14.8 c 5.083,4.953 11.713,7.767 18.851,7.767 7.095,0 13.735,-2.814 18.763,-7.767 l 24.02,-24.005 c 10.293,-10.326 10.293,-27.328 0,-37.589 l -14.839,-14.8 c -3.972,-3.964 -4.97,-12.138 -2.166,-17.923 2.574,-5.339 4.882,-10.964 6.905,-16.494 2.085,-6.073 8.693,-10.996 14.313,-10.996 h 20.751 c 14.663,0 26.555,-12.073 26.555,-26.682 v -33.946 c 0,-14.608 -11.9,-26.593 -26.556,-26.593 z m -112.561,43.6 c 0,43.015 -34.937,77.822 -77.888,77.822 -42.895,0 -77.822,-34.806 -77.822,-77.822 0,-42.945 34.927,-77.834 77.822,-77.834 42.952,0 77.888,34.889 77.888,77.834 z"
   id="path8"
   inkscape:connector-curvature="0"
   style="fill:#39414c" />
			</g>
		</g>
	</g>
</g>
</svg>