<?xml version="1.0" encoding="UTF-8" standalone="no"?>
<svg
   xmlns:dc="http://purl.org/dc/elements/1.1/"
   xmlns:cc="http://creativecommons.org/ns#"
   xmlns:rdf="http://www.w3.org/1999/02/22-rdf-syntax-ns#"
   xmlns:svg="http://www.w3.org/2000/svg"
   xmlns="http://www.w3.org/2000/svg"
   xmlns:sodipodi="http://sodipodi.sourceforge.net/DTD/sodipodi-0.dtd"
   xmlns:inkscape="http://www.inkscape.org/namespaces/inkscape"
   viewBox="0 0 115.45482 121.965"
   version="1.1"
   id="svg6"
   sodipodi:docname="jquery.svg"
   width="115.45482"
   height="121.965"
   inkscape:version="0.92.3 (2405546, 2018-03-11)">
  <metadata
     id="metadata12">
    <rdf:RDF>
      <cc:Work
         rdf:about="">
        <dc:format>image/svg+xml</dc:format>
        <dc:type
           rdf:resource="http://purl.org/dc/dcmitype/StillImage" />
        <dc:title></dc:title>
      </cc:Work>
    </rdf:RDF>
  </metadata>
  <defs
     id="defs10" />
  <sodipodi:namedview
     pagecolor="#ffffff"
     bordercolor="#666666"
     borderopacity="1"
     objecttolerance="10"
     gridtolerance="10"
     guidetolerance="10"
     inkscape:pageopacity="0"
     inkscape:pageshadow="2"
     inkscape:window-width="668"
     inkscape:window-height="483"
     id="namedview8"
     showgrid="false"
     fit-margin-top="0"
     fit-margin-left="0"
     fit-margin-right="0"
     fit-margin-bottom="0"
     inkscape:zoom="1.84375"
     inkscape:cx="57.726488"
     inkscape:cy="59.599"
     inkscape:window-x="0"
     inkscape:window-y="40"
     inkscape:window-maximized="0"
     inkscape:current-layer="svg6" />
  <path
     d="m 21.484488,18.787 c -7.352,10.565 -6.437,24.312 -0.82,35.54 l 0.411,0.798 0.263,0.506 0.164,0.291 0.293,0.524 c 0.174,0.307 0.353,0.612 0.536,0.919 l 0.306,0.504 c 0.203,0.326 0.41,0.65 0.622,0.973 l 0.265,0.409 c 0.293,0.437 0.592,0.872 0.901,1.301 l 0.026,0.033 0.152,0.205 c 0.267,0.368 0.542,0.732 0.821,1.093 l 0.309,0.393 c 0.249,0.313 0.502,0.623 0.759,0.934 l 0.29,0.346 c 0.345,0.406 0.698,0.812 1.057,1.208 l 0.021,0.022 0.041,0.045 c 0.351,0.383 0.71,0.758 1.075,1.133 l 0.344,0.347 c 0.282,0.284 0.569,0.563 0.858,0.841 l 0.351,0.334 c 0.387,0.364 0.777,0.722 1.176,1.07 l 0.018,0.016 0.205,0.174 c 0.351,0.305 0.708,0.605 1.068,0.902 l 0.442,0.353 c 0.294,0.235 0.591,0.468 0.89,0.696 l 0.477,0.361 c 0.33,0.243 0.663,0.482 0.999,0.717 l 0.363,0.258 0.101,0.072 c 0.318,0.22 0.645,0.431 0.97,0.642 l 0.42,0.28 c 0.5,0.315 1.007,0.628 1.519,0.93 l 0.42,0.237 c 0.377,0.217 0.756,0.431 1.14,0.639 l 0.631,0.326 0.816,0.424 0.188,0.091 0.334,0.161 c 0.427,0.204 0.858,0.405 1.293,0.599 l 0.273,0.122 c 0.498,0.218 1.001,0.427 1.508,0.628 l 0.368,0.144 c 0.469,0.182 0.945,0.359 1.423,0.527 l 0.179,0.062 c 0.524,0.184 1.054,0.353 1.587,0.52 l 0.383,0.114 c 0.542,0.164 1.079,0.358 1.638,0.462 35.553,6.483 45.88,-21.364 45.88,-21.364 -8.674,11.3 -24.069,14.28 -38.656,10.962 -0.553,-0.125 -1.089,-0.298 -1.628,-0.456 l -0.406,-0.124 c -0.526,-0.161 -1.049,-0.33 -1.568,-0.51 l -0.215,-0.077 c -0.465,-0.164 -0.924,-0.336 -1.382,-0.513 l -0.388,-0.152 c -0.501,-0.198 -1,-0.405 -1.492,-0.62 l -0.298,-0.133 c -0.423,-0.191 -0.842,-0.384 -1.259,-0.585 l -0.364,-0.175 c -0.327,-0.159 -0.65,-0.328 -0.974,-0.495 l -0.649,-0.341 c -0.395,-0.21 -0.782,-0.43 -1.167,-0.654 l -0.394,-0.219 c -0.513,-0.303 -1.019,-0.615 -1.52,-0.932 l -0.41,-0.273 c -0.363,-0.234 -0.725,-0.473 -1.081,-0.719 l -0.349,-0.245 c -0.344,-0.242 -0.685,-0.489 -1.022,-0.738 l -0.453,-0.343 c -0.31,-0.237 -0.618,-0.476 -0.922,-0.721 l -0.411,-0.33 c -0.388,-0.318 -0.771,-0.64 -1.149,-0.969 l -0.126,-0.105 c -0.409,-0.359 -0.811,-0.728 -1.208,-1.098 l -0.34,-0.328 c -0.294,-0.279 -0.584,-0.561 -0.868,-0.851 l -0.34,-0.34 c -0.362,-0.37 -0.717,-0.745 -1.065,-1.126 l -0.053,-0.057 c -0.368,-0.402 -0.728,-0.813 -1.08,-1.229 l -0.283,-0.336 c -0.263,-0.316 -0.523,-0.638 -0.777,-0.961 l -0.285,-0.355 c -0.307,-0.397 -0.605,-0.793 -0.898,-1.195 -8.098,-11.047 -11.008,-26.283 -4.535,-38.795 m 17.081,-1.626 c -5.316,7.65 -5.028,17.893 -0.88,25.983 0.695,1.356 1.477,2.673 2.351,3.925 0.796,1.143 1.68,2.501 2.737,3.418 0.383,0.422 0.784,0.834 1.193,1.238 l 0.314,0.311 c 0.397,0.385 0.801,0.764 1.218,1.132 l 0.05,0.043 0.012,0.012 c 0.462,0.405 0.939,0.794 1.423,1.178 l 0.323,0.252 c 0.486,0.372 0.981,0.738 1.489,1.087 l 0.043,0.033 0.68,0.447 0.322,0.213 c 0.363,0.233 0.73,0.459 1.104,0.676 l 0.156,0.092 c 0.322,0.185 0.648,0.367 0.975,0.545 l 0.347,0.18 0.682,0.354 0.103,0.047 c 0.469,0.23 0.941,0.453 1.424,0.663 l 0.314,0.13 c 0.386,0.163 0.775,0.323 1.167,0.473 l 0.5,0.184 c 0.356,0.132 0.712,0.253 1.072,0.373 l 0.484,0.155 c 0.511,0.158 1.017,0.359 1.549,0.448 27.45,4.547 33.787,-16.588 33.787,-16.588 -5.712,8.228 -16.775,12.153 -28.58,9.089 -0.524,-0.138 -1.042,-0.288 -1.555,-0.449 l -0.467,-0.151 c -0.365,-0.117 -0.728,-0.243 -1.087,-0.374 l -0.491,-0.183 c -0.394,-0.152 -0.784,-0.309 -1.171,-0.473 l -0.315,-0.133 c -0.485,-0.211 -0.962,-0.434 -1.432,-0.666 l -0.718,-0.365 -0.414,-0.213 c -0.306,-0.166 -0.61,-0.338 -0.909,-0.514 l -0.217,-0.123 c -0.372,-0.217 -0.738,-0.44 -1.1,-0.672 l -0.332,-0.221 -0.712,-0.472 c -0.506,-0.349 -0.999,-0.714 -1.484,-1.085 l -0.334,-0.264 c -5.167,-4.079 -9.263,-9.655 -11.21,-15.977 -2.041,-6.557 -1.601,-13.917 1.935,-19.891 m 14.847,-0.518 c -3.134,4.612 -3.442,10.341 -1.267,15.435 2.293,5.407 6.992,9.648 12.477,11.66 l 0.682,0.235 0.3,0.096 c 0.323,0.102 0.644,0.22 0.978,0.282 15.157,2.929 19.268,-7.777 20.362,-9.354 -3.601,5.185 -9.653,6.43 -17.079,4.627 -0.586,-0.142 -1.231,-0.354 -1.796,-0.555 -0.725,-0.259 -1.439,-0.553 -2.134,-0.886 -1.318,-0.634 -2.575,-1.402 -3.741,-2.282 -6.645,-5.042 -10.772,-14.659 -6.436,-22.492"
     id="path2"
     inkscape:connector-curvature="0"
     style="fill:#0868ac" />
  <path
     d="m 60.085488,94.661 h -4.226 c -0.234,0 -0.467,0.188 -0.517,0.417 l -1.5,6.94 -1.5,6.94 c -0.049,0.229 -0.282,0.417 -0.516,0.417 h -2.991 c -2.959,0 -2.617,-2.047 -2.011,-4.851 l 0.018,-0.085 0.066,-0.354 0.012,-0.066 0.135,-0.72 0.145,-0.771 0.154,-0.785 0.682,-3.332 0.683,-3.332 c 0.047,-0.23 -0.107,-0.419 -0.341,-0.419 h -4.337 c -0.234,0 -0.466,0.188 -0.514,0.418 l -0.933,4.424 -0.932,4.425 -0.002,0.006 -0.086,0.412 c -1.074,4.903 -0.79,9.58 5.048,9.727 l 0.17,0.003 h 9.163 c 0.234,0 0.467,-0.188 0.516,-0.417 l 1.976,-9.289 1.976,-9.29 c 0.049,-0.23 -0.103,-0.417 -0.338,-0.418 z m -45.256,-0.049 h -4.64 c -0.2349997,0 -0.4689997,0.188 -0.5209997,0.416 l -0.44,1.942 -0.44,1.942 c -0.051,0.229 0.098,0.416 0.333,0.416 h 4.6759997 c 0.235,0 0.468,-0.188 0.518,-0.417 l 0.425,-1.941 0.425,-1.941 c 0.049,-0.229 -0.101,-0.417 -0.336,-0.417 z m -1.346,6.044 H 8.8064883 c -0.234,0 -0.469,0.188 -0.521,0.416 l -0.657,2.91 -0.656,2.909 -0.183,0.834 -0.631,2.97 -0.63,2.971 c -0.049,0.229 -0.15,0.599 -0.225,0.821 0,0 -0.874,2.6 -2.343,2.57 l -0.184,-0.004 -1.271,-0.023 h -10e-4 c -0.234,-0.003 -0.469,0.18 -0.52400001,0.407 l -0.485,2.039 -0.484,2.038 c -0.055,0.228 0.093,0.416 0.326,0.42 0.83300001,0.01 2.69900001,0.031 3.82800001,0.031 3.669,0 5.604,-2.033 6.8429997,-7.883 l 1.451,-6.714 1.361,-6.297 c 0.049,-0.227 -0.103,-0.415 -0.337,-0.415 z m 86.117,-1.574 -0.194,-0.801 -0.191,-0.82 -0.097,-0.414 c -0.38,-1.477 -1.495,-2.328 -3.917,-2.328 l -3.77,-0.004 -3.472,-0.005 h -3.907 c -0.234,0 -0.466,0.188 -0.515,0.417 l -0.173,0.816 -0.204,0.964 -0.057,0.271 -1.759,8.24 -1.67,7.822 c -0.05,0.23 -0.066,0.512 -0.038,0.626 0.028,0.115 0.479,0.209 0.713,0.209 h 3.524 c 0.235,0 0.532,-0.042 0.66,-0.094 0.128,-0.052 0.317,-0.513 0.364,-0.742 l 0.626,-3.099 0.627,-3.1 0.001,-0.005 0.084,-0.413 0.76,-3.56 0.671,-3.144 c 0.05,-0.229 0.281,-0.416 0.515,-0.417 l 11.089,-0.005 c 0.235,0.002 0.383,-0.185 0.33,-0.414 z m 14.275002,-7.24 -0.854,0.003 h -3.549 c -0.235,0 -0.536,0.159 -0.667,0.353 l -7.849,11.498 c -0.132,0.194 -0.283,0.166 -0.335,-0.062 l -0.578,-2.533 c -0.052,-0.229 -0.287002,-0.416 -0.522002,-0.416 h -5.045 c -0.235,0 -0.374,0.184 -0.31,0.409 l 2.261,7.921 c 0.064,0.226 0.069,0.596 0.011,0.824 l -0.985,3.833 c -0.059,0.228 0.085,0.413 0.32,0.413 h 4.987002 c 0.234,0 0.474,-0.186 0.532,-0.413 l 0.986,-3.833 c 0.058,-0.229 0.221,-0.567 0.363,-0.755 l 12.742,-16.911 c 0.142,-0.188 0.065,-0.341 -0.169,-0.339 z m -40.086002,9.919 v -0.004 c -0.029,0.254 -0.264,0.441 -0.499,0.441 h -6.397 c -0.222,0 -0.334,-0.15 -0.301,-0.336 l 0.006,-0.015 -0.004,0.002 0.003,-0.021 0.029,-0.109 c 0.611,-1.624 1.855,-2.69 4.194,-2.69 2.634,-10e-4 3.148,1.285 2.969,2.732 z m -1.877,-7.384 c -8.211,0 -10.157,4.984 -11.249,10.015 -1.091,5.128 -0.998,9.921 7.5,9.921 h 1.03 l 0.256,-0.001 h 0.06 l 1.02,-0.003 h 0.018 c 2.244,-0.009 4.495,-0.026 5.406,-0.033 0.233,-0.004 0.461,-0.191 0.509,-0.42 l 0.344,-1.681 0.067,-0.327 0.41,-2.006 c 0.047,-0.229 -0.106,-0.418 -0.341,-0.418 h -7.639 c -3.039,0 -3.941,-0.807 -3.608,-3.181 h 12.211 l -10e-4,0.001 0.008,-0.001 c 0.194,-0.003 0.374,-0.137 0.445,-0.315 l 0.029,-0.106 -0.001,10e-4 c 1.813,-6.839 1.293,-11.445 -6.474,-11.446 z m -38.81,7.358 -0.116,0.409 v 10e-4 l -0.922,3.268 -0.922,3.267 c -0.063,0.227 -0.308,0.411 -0.543,0.411 h -4.88 c -3.702,0 -4.604,-2.896 -3.702,-7.166 0.901,-4.368 2.668,-7.083 6.312,-7.358 4.98,-0.376 5.976,3.126 4.773,7.168 z m 3.348,7.105 c 0,0 2.301,-5.588 2.823,-8.814 0.713,-4.319 -1.45,-10.585 -9.804,-10.585 -8.306,0 -11.914,5.981 -13.29,12.484 -1.376,6.55 0.427,12.293 8.686,12.246 l 6.516,-0.024 6.089,-0.022 c 0.234,-0.002 0.474,-0.188 0.534,-0.414 l 1.061,-4.046 c 0.059,-0.228 -0.084,-0.414 -0.319,-0.416 l -1.017,-0.006 -1.017,-0.006 c -0.199,-10e-4 -0.313,-0.131 -0.289,-0.302 z m 41.12,-3.741 c 0,0.155 -0.125,0.281 -0.28,0.281 -0.154,0 -0.28,-0.126 -0.28,-0.281 0,-0.154 0.125,-0.279 0.28,-0.279 0.155,0 0.28,0.125 0.28,0.279 z"
     id="path4"
     inkscape:connector-curvature="0"
     style="fill:#131b28" />
</svg>
