<?xml version="1.0" encoding="iso-8859-1"?>
<!-- Generator: Adobe Illustrator 19.0.0, SVG Export Plug-In . SVG Version: 6.00 Build 0)  -->
<svg version="1.1" id="Layer_1" xmlns="http://www.w3.org/2000/svg" xmlns:xlink="http://www.w3.org/1999/xlink" x="0px" y="0px"
	 viewBox="0 0 512 512" style="enable-background:new 0 0 512 512;" xml:space="preserve">
<g>
	<path style="fill:#E8EDEE;" d="M379.586,105.931c0,58.262-47.669,105.931-105.931,105.931s-105.931-47.669-105.931-105.931
		S215.393,0,273.655,0S379.586,47.669,379.586,105.931"/>
	<path style="fill:#E8EDEE;" d="M150.069,406.069h247.172V264.828H150.069V406.069z"/>
</g>
<g>
	<path style="fill:#C7CBC7;" d="M397.241,370.759H512v-70.621H397.241V370.759z"/>
	<path style="fill:#C7CBC7;" d="M0,448.441V512h70.621v-63.559c0-44.138,35.31-79.448,79.448-79.448v-68.855
		C67.09,300.138,0,365.462,0,448.441"/>
	<path style="fill:#C7CBC7;" d="M203.034,361.931h141.241v-52.966H203.034V361.931z"/>
	<path style="fill:#C7CBC7;" d="M273.655,220.69c-5.297,0-8.828-3.531-8.828-8.828v-17.655c0-5.297,3.531-8.828,8.828-8.828
		c5.297,0,8.828,3.531,8.828,8.828v17.655C282.483,217.159,278.952,220.69,273.655,220.69"/>
</g>
<path style="fill:#E15649;" d="M291.31,123.586l-52.965,17.655L256,88.276l52.966-17.655L291.31,123.586z"/>
<g>
	<path style="fill:#C7CBC7;" d="M273.655,211.862c-12.359,0-23.835-2.648-35.31-6.179v59.145h70.621v-59.145
		C297.49,209.214,286.014,211.862,273.655,211.862"/>
	<path style="fill:#C7CBC7;" d="M273.655,0c-2.648,0-6.179,0-8.828,0.883v16.772c0,5.297,3.531,8.828,8.828,8.828
		c5.297,0,8.828-3.531,8.828-8.828V0.883C279.835,0,276.303,0,273.655,0"/>
	<path style="fill:#C7CBC7;" d="M378.703,97.103h-16.772c-5.297,0-8.828,3.531-8.828,8.828c0,5.297,3.531,8.828,8.828,8.828h16.772
		c0-2.648,0.883-6.179,0.883-8.828C379.586,103.283,379.586,99.752,378.703,97.103"/>
	<path style="fill:#C7CBC7;" d="M168.607,114.759h16.772c5.297,0,8.828-3.531,8.828-8.828c0-5.297-3.531-8.828-8.828-8.828h-16.772
		c0,2.648-0.883,6.179-0.883,8.828C167.724,108.579,167.724,112.11,168.607,114.759"/>
</g>
<g>
</g>
<g>
</g>
<g>
</g>
<g>
</g>
<g>
</g>
<g>
</g>
<g>
</g>
<g>
</g>
<g>
</g>
<g>
</g>
<g>
</g>
<g>
</g>
<g>
</g>
<g>
</g>
<g>
</g>
</svg>
