<?xml version="1.0" encoding="UTF-8" standalone="no"?>
<!-- Created with Inkscape (http://www.inkscape.org/) -->

<svg
   xmlns:dc="http://purl.org/dc/elements/1.1/"
   xmlns:cc="http://creativecommons.org/ns#"
   xmlns:rdf="http://www.w3.org/1999/02/22-rdf-syntax-ns#"
   xmlns:svg="http://www.w3.org/2000/svg"
   xmlns="http://www.w3.org/2000/svg"
   xmlns:sodipodi="http://sodipodi.sourceforge.net/DTD/sodipodi-0.dtd"
   xmlns:inkscape="http://www.inkscape.org/namespaces/inkscape"
   width="88.444687mm"
   height="84.28038mm"
   viewBox="0 0 88.444687 84.28038"
   version="1.1"
   id="svg8"
   inkscape:version="0.92.3 (2405546, 2018-03-11)"
   sodipodi:docname="mvc.svg">
  <defs
     id="defs2" />
  <sodipodi:namedview
     id="base"
     pagecolor="#ffffff"
     bordercolor="#666666"
     borderopacity="1.0"
     inkscape:pageopacity="0.0"
     inkscape:pageshadow="2"
     inkscape:zoom="0.7"
     inkscape:cx="-41.706186"
     inkscape:cy="123.84373"
     inkscape:document-units="mm"
     inkscape:current-layer="layer1"
     showgrid="false"
     fit-margin-top="0"
     fit-margin-left="0"
     fit-margin-right="0"
     fit-margin-bottom="0"
     inkscape:window-width="1920"
     inkscape:window-height="1008"
     inkscape:window-x="0"
     inkscape:window-y="40"
     inkscape:window-maximized="1" />
  <metadata
     id="metadata5">
    <rdf:RDF>
      <cc:Work
         rdf:about="">
        <dc:format>image/svg+xml</dc:format>
        <dc:type
           rdf:resource="http://purl.org/dc/dcmitype/StillImage" />
        <dc:title></dc:title>
      </cc:Work>
    </rdf:RDF>
  </metadata>
  <g
     inkscape:label="Calque 1"
     inkscape:groupmode="layer"
     id="layer1"
     transform="translate(-38.082954,-128.46374)">
    <g
       id="g907">
      <path
         inkscape:connector-curvature="0"
         id="path10"
         d="m 61.200109,162.72904 a 25,25 0 0 0 -23.046148,26.8119 25,25 0 0 0 26.811888,23.04614 25,25 0 0 0 16.527014,-8.04235 25,25 0 0 1 -9.282947,-17.57601 25,25 0 0 1 6.519135,-18.76955 25,25 0 0 0 -17.528942,-5.47013 z"
         style="fill:#faee5b;fill-opacity:1;stroke:none;stroke-width:1.176;stroke-linecap:round;stroke-miterlimit:4;stroke-dasharray:none;stroke-opacity:1" />
      <path
         id="path10-7"
         d="m 80.724454,201.60881 a 25,25 0 0 0 34.667826,6.93844 25,25 0 0 0 6.93854,-34.66779 25,25 0 0 0 -15.11301,-10.46033 25,25 0 0 1 -10.766246,16.7086 25,25 0 0 1 -19.554861,3.52182 25,25 0 0 0 3.827751,17.95926 z"
         style="fill:#5fc9f4;fill-opacity:1;stroke:none;stroke-width:1.176;stroke-linecap:round;stroke-miterlimit:4;stroke-dasharray:none;stroke-opacity:1"
         inkscape:connector-curvature="0" />
      <path
         id="path10-7-5"
         d="m 105.95778,163.63369 a 25,25 0 0 0 -12.66807,-33.0079 25,25 0 0 0 -33.007912,12.66798 25,25 0 0 0 -0.761564,18.36414 25,25 0 0 1 19.87617,0.1672 25,25 0 0 1 13.42961,14.64381 25,25 0 0 0 13.131766,-12.83523 z"
         style="fill:#75f45f;fill-opacity:1;stroke:none;stroke-width:1.176;stroke-linecap:round;stroke-miterlimit:4;stroke-dasharray:none;stroke-opacity:1"
         inkscape:connector-curvature="0" />
    </g>
  </g>
</svg>
