<?xml version="1.0" encoding="UTF-8" standalone="no"?>
<svg
   xmlns:dc="http://purl.org/dc/elements/1.1/"
   xmlns:cc="http://creativecommons.org/ns#"
   xmlns:rdf="http://www.w3.org/1999/02/22-rdf-syntax-ns#"
   xmlns:svg="http://www.w3.org/2000/svg"
   xmlns="http://www.w3.org/2000/svg"
   xmlns:sodipodi="http://sodipodi.sourceforge.net/DTD/sodipodi-0.dtd"
   xmlns:inkscape="http://www.inkscape.org/namespaces/inkscape"
   viewBox="0 0 188 120.00832"
   version="1.1"
   id="svg4"
   sodipodi:docname="oop.svg"
   width="188"
   height="120.00832"
   inkscape:version="0.92.3 (2405546, 2018-03-11)">
  <metadata
     id="metadata10">
    <rdf:RDF>
      <cc:Work
         rdf:about="">
        <dc:format>image/svg+xml</dc:format>
        <dc:type
           rdf:resource="http://purl.org/dc/dcmitype/StillImage" />
        <dc:title></dc:title>
      </cc:Work>
    </rdf:RDF>
  </metadata>
  <defs
     id="defs8" />
  <sodipodi:namedview
     pagecolor="#ffffff"
     bordercolor="#666666"
     borderopacity="1"
     objecttolerance="10"
     gridtolerance="10"
     guidetolerance="10"
     inkscape:pageopacity="0"
     inkscape:pageshadow="2"
     inkscape:window-width="668"
     inkscape:window-height="483"
     id="namedview6"
     showgrid="false"
     fit-margin-top="0"
     fit-margin-left="0"
     fit-margin-right="0"
     fit-margin-bottom="0"
     inkscape:zoom="1.1979695"
     inkscape:cx="94"
     inkscape:cy="60.064214"
     inkscape:window-x="0"
     inkscape:window-y="40"
     inkscape:window-maximized="0"
     inkscape:current-layer="svg4" />
  <path
     d="m 28.4,1.1441012 c -5.4,1.8 -11.9,7.5 -14.6,12.6999998 -1.8,3.4 -2.3,6.5 -2.8,18.3 -0.7,16 -1.8,19 -7.9,20.7 -3,0.9 -3.1,1 -3.1,7 0,6.1 0.1,6.2 3.2,7.1 6,1.9 7.1,4.8 7.8,20.8 0.7,15.499999 1.9,19.399999 7.7,24.899999 2.9,2.8 13.2,8 14.3,7.3 0.4,-0.3 1.3,-2.4 1.9,-4.8 1.2,-4.3 1.2,-4.4 -2.2,-7.8 -4.5,-4.5 -5.7,-8.999999 -5.7,-21.799999 0,-12.6 -1.3,-17.4 -6,-22.1 l -3.6,-3.6 3.6,-3.5 c 4.6,-4.5 6,-9.4 6,-21.8 0,-13.3 1.3,-18.3 5.7,-22.2 3.5,-2.9999998 3.5,-2.9999998 2.3,-7.4999998 -0.7,-2.4 -1.6,-4.60000003 -1.9,-4.80000003 -0.3,-0.2 -2.5,0.3 -4.7,1.10000003 z m 124.2,3.4 c -1.5,4.3 -1.5,5.3 -0.4,5.9999998 0.7,0.5 1.6,0.9 2,0.9 0.4,0 1.7,1.5 3,3.2 2,2.9 2.4,4.8 2.9,17.3 0.7,16 2.2,20.9 7.5,25.3 l 3.4,2.8 -3,2.2 c -5.7,4.3 -7.3,9.2 -7.8,24.2 -0.5,14.899999 -2.1,20.099999 -6.8,22.199999 -1.4,0.6 -2.3,1.7 -2,2.4 0.2,0.6 1,3 1.7,5.3 1,3.5 1.5,4 3.3,3.5 7.8,-2.4 14,-7.5 17.3,-14.2 2.5,-5.2 2.8,-6.899999 3.1,-18.199999 0.2,-6.9 0.8,-13.8 1.4,-15.3 1.1,-2.8 5.3,-5.7 8.3,-5.7 1.2,0 1.5,-1.3 1.5,-6.5 0,-5 -0.3,-6.5 -1.5,-6.5 -2.8,0 -6.7,-2.4 -8.1,-5.1 -1,-1.9 -1.4,-6.2 -1.4,-13.7 0,-17.3 -3.8,-26.0999998 -13.6,-31.2999998 -8.5,-4.6 -8.7,-4.6 -10.8,1.2 z M 53.2,80.644101 c -4.1,1.1 -6.2,4.3 -6.2,9.3 0,7.3 7.9,11.699999 14.8,8.1 5.8,-3 7,-9.4 2.7,-14.4 -2.7,-3.3 -6.4,-4.2 -11.3,-3 z m 36,0 c -4.1,1.1 -6.2,4.3 -6.2,9.3 0,7.3 7.9,11.699999 14.8,8.1 5.8,-3 7,-9.4 2.7,-14.4 -2.7,-3.3 -6.4,-4.2 -11.3,-3 z m 37,0 c -4.1,1.1 -6.2,4.3 -6.2,9.3 0,7.3 7.9,11.699999 14.8,8.1 5.8,-3 7,-9.4 2.7,-14.4 -2.7,-3.3 -6.4,-4.2 -11.3,-3 z"
     id="path2"
     inkscape:connector-curvature="0"
     style="fill:#1a4674" />
</svg>
