<?xml version="1.0" encoding="UTF-8" standalone="no"?>
<svg
   xmlns:dc="http://purl.org/dc/elements/1.1/"
   xmlns:cc="http://creativecommons.org/ns#"
   xmlns:rdf="http://www.w3.org/1999/02/22-rdf-syntax-ns#"
   xmlns:svg="http://www.w3.org/2000/svg"
   xmlns="http://www.w3.org/2000/svg"
   xmlns:sodipodi="http://sodipodi.sourceforge.net/DTD/sodipodi-0.dtd"
   xmlns:inkscape="http://www.inkscape.org/namespaces/inkscape"
   enable-background="new 0 0 40 40"
   version="1.1"
   viewBox="0 0 371.40678 371.40678"
   xml:space="preserve"
   id="svg41"
   sodipodi:docname="wordpress.svg"
   width="98.268044mm"
   height="98.268044mm"
   inkscape:version="0.92.3 (2405546, 2018-03-11)"><metadata
     id="metadata47"><rdf:RDF><cc:Work
         rdf:about=""><dc:format>image/svg+xml</dc:format><dc:type
           rdf:resource="http://purl.org/dc/dcmitype/StillImage" /><dc:title></dc:title></cc:Work></rdf:RDF></metadata><defs
     id="defs45" /><sodipodi:namedview
     pagecolor="#ffffff"
     bordercolor="#666666"
     borderopacity="1"
     objecttolerance="10"
     gridtolerance="10"
     guidetolerance="10"
     inkscape:pageopacity="0"
     inkscape:pageshadow="2"
     inkscape:window-width="1920"
     inkscape:window-height="1008"
     id="namedview43"
     showgrid="false"
     fit-margin-top="0"
     fit-margin-left="0"
     fit-margin-right="0"
     fit-margin-bottom="0"
     inkscape:zoom="0.7375"
     inkscape:cx="-68.229955"
     inkscape:cy="46.33081"
     inkscape:window-x="0"
     inkscape:window-y="40"
     inkscape:window-maximized="1"
     inkscape:current-layer="svg41"
     units="mm" /><g
     id="Social"
     transform="matrix(13.755807,0,0,13.755807,-89.412745,-89.412745)"><g
       id="GitHub" /><g
       id="Soundcloud_3_" /><g
       id="Dropbox_2_" /><g
       id="Instagram_7_" /><g
       id="WordPress_3_"><path
         d="m 11,16 4.7,12.9 c -3.3,-1.6 -5.6,-5 -5.6,-8.9 0,-1.4 0.3,-2.8 0.9,-4 z m 15.7,3.5 c 0,-1.2 -0.4,-2.1 -0.8,-2.7 -0.5,-0.8 -1,-1.5 -1,-2.3 0,-0.9 0.7,-1.8 1.7,-1.8 0,0 0.1,0 0.1,0 -1.8,-1.6 -4.1,-2.6 -6.7,-2.6 -3.4,0 -6.5,1.8 -8.2,4.4 0.2,0 0.4,0 0.6,0 1,0 2.6,-0.1 2.6,-0.1 0.5,0 0.6,0.8 0.1,0.8 0,0 -0.5,0.1 -1.1,0.1 l 3.6,10.7 2.2,-6.5 -1.5,-4.2 c -0.5,0 -1,-0.1 -1,-0.1 -0.5,0 -0.5,-0.8 0.1,-0.8 0,0 1.6,0.1 2.6,0.1 1,0 2.6,-0.1 2.6,-0.1 0.5,0 0.6,0.8 0.1,0.8 0,0 -0.5,0.1 -1.1,0.1 l 3.3,10.7 1,-3.3 c 0.4,-1.4 0.8,-2.4 0.8,-3.2 z m -6.5,1.4 -3,8.6 c 0.9,0.3 1.8,0.4 2.8,0.4 1.1,0 2.3,-0.2 3.3,-0.6 0,0 -0.1,-0.1 -0.1,-0.1 z m 8.5,-5.6 c 0,0.3 0.1,0.7 0.1,1 0,1 -0.2,2.1 -0.8,3.5 l -3,8.7 c 2.9,-1.7 4.9,-4.9 4.9,-8.5 0,-1.7 -0.5,-3.3 -1.2,-4.7 z"
         id="path6"
         inkscape:connector-curvature="0"
         style="fill:#3498d8" /><path
         d="M 20,6.5 C 12.6,6.5 6.5,12.6 6.5,20 6.5,27.4 12.6,33.5 20,33.5 27.4,33.5 33.5,27.4 33.5,20 33.5,12.6 27.4,6.5 20,6.5 Z m 0,25.4 C 13.5,31.9 8.1,26.6 8.1,20 8.1,13.5 13.4,8.1 20,8.1 c 6.6,0 11.9,5.4 11.9,11.9 0,6.5 -5.4,11.9 -11.9,11.9 z"
         id="path8"
         inkscape:connector-curvature="0"
         style="fill:#2980b9" /></g><g
       id="PlayStation" /><g
       id="XBox_2_" /><g
       id="Windows_2_" /><g
       id="iOS_1_" /><g
       id="Apple_2_" /><g
       id="Android_2_" /><g
       id="Deviantart_2_" /><g
       id="Yelp_2_" /><g
       id="Picassa_6_" /><g
       id="LastFM_2_" /><g
       id="Amazon_3_" /><g
       id="AIM_2_" /><g
       id="fffound_1_" /><g
       id="Forrst_3_" /><g
       id="Yahoo_3_" /><g
       id="YouTube_3_" /><g
       id="Behance_2_" /><g
       id="Tumblr_2_" /><g
       id="Vimeo_2_" /><g
       id="Skype_3_" /><g
       id="Pinterest_2_" /><g
       id="LinkedIn_1_" /><g
       id="Dribbble_3_" /><g
       id="Flickr_3_" /><g
       id="Google_Plus_2_" /><g
       id="RSS_2_" /><g
       id="Twitter_2_" /><g
       id="Facebook_2_" /></g><g
     id="Lockup"
     transform="translate(-111.00799,480.76591)" /></svg>