<?xml version="1.0" encoding="UTF-8" standalone="no"?>
<svg
   xmlns:dc="http://purl.org/dc/elements/1.1/"
   xmlns:cc="http://creativecommons.org/ns#"
   xmlns:rdf="http://www.w3.org/1999/02/22-rdf-syntax-ns#"
   xmlns:svg="http://www.w3.org/2000/svg"
   xmlns="http://www.w3.org/2000/svg"
   xmlns:sodipodi="http://sodipodi.sourceforge.net/DTD/sodipodi-0.dtd"
   xmlns:inkscape="http://www.inkscape.org/namespaces/inkscape"
   aria-hidden="true"
   focusable="false"
   data-prefix="fas"
   data-icon="comment"
   class="svg-inline--fa fa-comment fa-w-16"
   role="img"
   viewBox="0 0 770 770"
   version="1.1"
   id="svg4"
   sodipodi:docname="message.svg"
   width="770"
   height="770"
   inkscape:version="0.92.3 (2405546, 2018-03-11)">
  <metadata
     id="metadata10">
    <rdf:RDF>
      <cc:Work
         rdf:about="">
        <dc:format>image/svg+xml</dc:format>
        <dc:type
           rdf:resource="http://purl.org/dc/dcmitype/StillImage" />
        <dc:title />
      </cc:Work>
    </rdf:RDF>
  </metadata>
  <defs
     id="defs8" />
  <sodipodi:namedview
     pagecolor="#ffffff"
     bordercolor="#666666"
     borderopacity="1"
     objecttolerance="10"
     gridtolerance="10"
     guidetolerance="10"
     inkscape:pageopacity="0"
     inkscape:pageshadow="2"
     inkscape:window-width="1920"
     inkscape:window-height="1008"
     id="namedview6"
     showgrid="false"
     fit-margin-top="0"
     fit-margin-left="0"
     fit-margin-right="0"
     fit-margin-bottom="0"
     inkscape:zoom="0.4609375"
     inkscape:cx="-438.32203"
     inkscape:cy="385"
     inkscape:window-x="0"
     inkscape:window-y="40"
     inkscape:window-maximized="1"
     inkscape:current-layer="svg4" />
  <circle
     style="fill:#69ce87;fill-opacity:0.66666669;stroke:none;stroke-width:2.64599991;stroke-linecap:round;stroke-miterlimit:4;stroke-dasharray:none;stroke-opacity:1"
     id="path817"
     cx="385"
     cy="385"
     r="385" />
  <path
     d="m 385,161 c -141.4,0 -256,93.1 -256,208 0,49.6 21.4,95 57,130.7 -12.5,50.4 -54.3,95.3 -54.8,95.8 -2.2,2.3 -2.8,5.7 -1.5,8.7 1.3,3 4.1,4.8 7.3,4.8 66.3,0 116,-31.8 140.6,-51.4 32.7,12.3 69,19.4 107.4,19.4 141.4,0 256,-93.1 256,-208 C 641,254.1 526.4,161 385,161 Z"
     id="path2"
     style="fill:#aaaaaa;fill-opacity:1"
     inkscape:connector-curvature="0" />
</svg>
