<?xml version="1.0" encoding="UTF-8" standalone="no"?>
<!-- Generator: Adobe Illustrator 19.0.0, SVG Export Plug-In . SVG Version: 6.00 Build 0)  -->

<svg
   xmlns:dc="http://purl.org/dc/elements/1.1/"
   xmlns:cc="http://creativecommons.org/ns#"
   xmlns:rdf="http://www.w3.org/1999/02/22-rdf-syntax-ns#"
   xmlns:svg="http://www.w3.org/2000/svg"
   xmlns="http://www.w3.org/2000/svg"
   xmlns:sodipodi="http://sodipodi.sourceforge.net/DTD/sodipodi-0.dtd"
   xmlns:inkscape="http://www.inkscape.org/namespaces/inkscape"
   version="1.1"
   id="レイヤー_1"
   x="0px"
   y="0px"
   viewBox="0 0 51.500001 46.499999"
   xml:space="preserve"
   sodipodi:docname="logo.svg"
   inkscape:version="0.92.3 (2405546, 2018-03-11)"
   width="51.5"
   height="46.5"><metadata
   id="metadata17"><rdf:RDF><cc:Work
       rdf:about=""><dc:format>image/svg+xml</dc:format><dc:type
         rdf:resource="http://purl.org/dc/dcmitype/StillImage" /><dc:title></dc:title></cc:Work></rdf:RDF></metadata><defs
   id="defs15" /><sodipodi:namedview
   pagecolor="#ffffff"
   bordercolor="#666666"
   borderopacity="1"
   objecttolerance="10"
   gridtolerance="10"
   guidetolerance="10"
   inkscape:pageopacity="0"
   inkscape:pageshadow="2"
   inkscape:window-width="1920"
   inkscape:window-height="1008"
   id="namedview13"
   showgrid="false"
   inkscape:zoom="6.3428795"
   inkscape:cx="11.6738"
   inkscape:cy="3.0745556"
   inkscape:window-x="0"
   inkscape:window-y="40"
   inkscape:window-maximized="1"
   inkscape:current-layer="レイヤー_1"
   fit-margin-top="0"
   fit-margin-left="0"
   fit-margin-right="0"
   fit-margin-bottom="0" />
<style
   type="text/css"
   id="style2">
	.st0{fill:#BE1521;}
</style>

<g
   id="XMLID_4_"
   style="fill:#ddd"
   transform="translate(-273.9,-397.2)">
	<g
   id="XMLID_1_"
   style="fill:#ddd">
		<path
   id="XMLID_22_"
   d="m 309.8,406.4 h 7.9 V 404 c 0,-2.4 -0.6,-4.1 -1.7,-5.2 -1.2,-1.1 -3,-1.6 -5.5,-1.6 h -34.9 l 6.7,6.7 h 27.6 v 2.5 z"
   style="fill:#fffa2;fill-opacity:1"
   inkscape:connector-curvature="0" />
		<path
   id="XMLID_25_"
   d="m 306.3,419 h 4.1 c 2.5,0 4.3,-0.5 5.5,-1.6 1.1,-1.1 1.7,-2.8 1.7,-5.1 v -2.5 h -7.9 v 2.6 h -19.1 l 0.7,0.7 v 0 l 1.5,1.5 v 0 l 23.7,23.6 h 8.9 z"
   style="fill:#ddd"
   inkscape:connector-curvature="0" />
	</g>
	<g
   id="XMLID_23_"
   style="fill:#ddd">
		<path
   id="XMLID_24_"
   d="m 307.4,422 c -1.1,-1.3 -3.3,-2 -6.4,-2 h -18.9 v -2.7 h -7.8 v 0.9 c 0,3.5 0.1,5.9 1.2,7.3 1.1,1.4 3.7,2 6.8,2 h 20.1 v 8.4 h -28.5 l 7.4,7.8 H 301 c 3.1,0 5.3,-0.7 6.4,-2 1.1,-1.3 1.7,-3.7 1.7,-7.3 V 429 c 0,-3.3 -0.6,-5.7 -1.7,-7 z"
   style="fill:#ddd"
   inkscape:connector-curvature="0" />
		<path
   id="XMLID_26_"
   d="m 282.1,414 v -2.4 h 7.7 l -6.8,-6.8 h -0.6 c -3.1,0 -5.3,0.6 -6.4,1.9 -1.1,1.3 -1.6,3.7 -1.6,7.3 v 0 z"
   style="fill:#ddd"
   inkscape:connector-curvature="0" />
	</g>
</g>
</svg>